<svg id="Calque_1" data-name="Calque 1" xmlns="http://www.w3.org/2000/svg" width="113.9" height="25.65" viewBox="0 0 113.9 25.65">
  <defs>
    <style>
      .cls-1 {
        fill: #fff;
      }
    </style>
  </defs>
  <path class="cls-1" d="M31.94,62.83H57.59V37.17H31.94Zm20.71-15.3H47.23V42.11h5.42ZM36.88,42.11H42.3V52.47H52.65v5.42H36.88Zm37.41-4.94A12.83,12.83,0,1,0,87.12,50,12.84,12.84,0,0,0,74.29,37.17Zm0,20.72A7.89,7.89,0,1,1,82.18,50,7.88,7.88,0,0,1,74.29,57.89ZM133,37.18A12.83,12.83,0,1,0,145.84,50h0A12.84,12.84,0,0,0,133,37.18Zm0,20.71A7.89,7.89,0,1,1,140.9,50h0A7.91,7.91,0,0,1,133,57.89ZM103.65,37.18A12.83,12.83,0,1,0,116.48,50h0A12.84,12.84,0,0,0,103.65,37.18Zm0,20.71a7.89,7.89,0,1,1,7.49-10.36h-7.49v4.94h7.49A7.9,7.9,0,0,1,103.65,57.89Z" transform="translate(-31.94 -37.17)"/>
</svg>
